<svg width="63" height="63" viewBox="0 0 63 63" fill="none" xmlns="http://www.w3.org/2000/svg">
<rect width="63" height="63" rx="8" fill="#167DB7"/>
<path fill-rule="evenodd" clip-rule="evenodd" d="M25.3915 42.3175C25.7595 42.3175 26.0355 42.0862 26.0815 41.7625L29.3935 14.3363V14.2437C29.3935 13.9662 29.2555 13.7812 28.9795 13.7812H28.8875H23.4595C23.0915 13.8275 23.0455 13.9662 22.9995 14.29L19.7335 41.7162L19.6875 41.8087C19.6875 42.1325 19.9635 42.3175 20.2855 42.3175H25.3915ZM30.1755 50.0412C34.6375 50.0412 38.3635 48.6537 39.0995 42.6875L42.6415 14.3363C42.6415 14.0588 42.5035 13.8738 42.1815 13.8738H42.0895L36.8915 13.7812C36.5695 13.8275 36.2935 14.0125 36.2475 14.3363L32.7975 42.8262C32.4295 45.6475 31.0495 45.8325 29.0715 45.925C28.6985 45.9458 28.3535 45.9573 28.0365 45.9678C27.6498 45.9806 27.3048 45.9921 27.0015 46.0175C26.4035 46.0175 26.1735 46.1562 26.0815 46.8037L25.8055 49.0237V49.255C25.8055 49.7573 26.1642 49.8088 26.4832 49.8545L26.4955 49.8562C26.5642 49.8655 26.6297 49.8747 26.6946 49.8838C27.2811 49.9663 27.8146 50.0412 30.1755 50.0412Z" fill="white"/>
</svg>
